<svg xmlns="http://www.w3.org/2000/svg" width="30.015" height="27" viewBox="0 0 30.015 27">
  <g id="Layer_61" data-name="Layer 61" transform="translate(-1 -3)">
    <path id="Caminho_1453" data-name="Caminho 1453" d="M10,20a1,1,0,0,1-1-.8L6.66,7.41A3,3,0,0,0,3.72,5H2A1,1,0,0,1,2,3H3.72a5,5,0,0,1,4.9,4L11,18.8a1,1,0,0,1-.8,1.2Z" transform="translate(0 0)" fill="#21d1d1"/>
    <path id="Caminho_1454" data-name="Caminho 1454" d="M11,27H9.14a4.14,4.14,0,0,1-.38-8.26l18.41-1.67L28.78,9H8A1,1,0,0,1,8,7H30a1.037,1.037,0,0,1,1,1.2l-2,10a1,1,0,0,1-.89.8L8.94,20.74A2.132,2.132,0,0,0,9.14,25H11a1,1,0,0,1,0,2Z" transform="translate(0 0)" fill="#21d1d1"/>
    <path id="Caminho_1455" data-name="Caminho 1455" d="M26,30a4,4,0,1,1,4-4A4,4,0,0,1,26,30Zm0-6a2,2,0,1,0,2,2A2,2,0,0,0,26,24Z" transform="translate(0 0)" fill="#21d1d1"/>
    <path id="Caminho_1456" data-name="Caminho 1456" d="M14,30a4,4,0,1,1,4-4A4,4,0,0,1,14,30Zm0-6a2,2,0,1,0,2,2A2,2,0,0,0,14,24Z" transform="translate(0 0)" fill="#21d1d1"/>
    <path id="Caminho_1457" data-name="Caminho 1457" d="M23,27H17a1,1,0,0,1,0-2h6a1,1,0,0,1,0,2Z" transform="translate(0 0)" fill="#21d1d1"/>
  </g>
</svg>
