<svg xmlns="http://www.w3.org/2000/svg" width="37.506" height="32.771" viewBox="0 0 37.506 32.771">
  <g id="List" transform="translate(0 -2.02)">
    <path id="Caminho_1468" data-name="Caminho 1468" d="M12.152,7.334l22.269.023a1.172,1.172,0,0,0,0-2.344L12.152,4.99a1.172,1.172,0,0,0,0,2.344Z" transform="translate(1.889 0.511)" fill="#21d1d1"/>
    <path id="Caminho_1469" data-name="Caminho 1469" d="M34.441,15,12.172,14.98a1.172,1.172,0,0,0,0,2.344l22.269.023a1.172,1.172,0,1,0,0-2.344Z" transform="translate(1.893 2.23)" fill="#21d1d1"/>
    <path id="Caminho_1470" data-name="Caminho 1470" d="M34.441,25,12.172,24.98a1.172,1.172,0,0,0,0,2.344l22.269.023a1.172,1.172,0,0,0,0-2.344Z" transform="translate(1.893 3.95)" fill="#21d1d1"/>
    <path id="Caminho_1471" data-name="Caminho 1471" d="M4.677,2.02A4.677,4.677,0,1,0,9.353,6.7,4.676,4.676,0,0,0,4.677,2.02ZM4.665,9.041a2.344,2.344,0,1,1,0-4.688,2.344,2.344,0,0,1,0,4.688Z" transform="translate(0 0)" fill="#21d1d1"/>
    <path id="Caminho_1472" data-name="Caminho 1472" d="M4.677,12.02A4.677,4.677,0,1,0,9.353,16.7,4.676,4.676,0,0,0,4.677,12.02Zm-.012,7.021a2.344,2.344,0,1,1,0-4.688,2.344,2.344,0,0,1,0,4.688Z" transform="translate(0 1.721)" fill="#21d1d1"/>
    <path id="Caminho_1473" data-name="Caminho 1473" d="M4.677,22a4.677,4.677,0,1,0,4.677,4.677A4.676,4.676,0,0,0,4.677,22Zm-.012,7.021a2.344,2.344,0,1,1,0-4.688,2.344,2.344,0,1,1,0,4.688Z" transform="translate(0 3.438)" fill="#21d1d1"/>
  </g>
</svg>
