<svg id="Icon-Credit-Card" xmlns="http://www.w3.org/2000/svg" width="37.407" height="28.673" viewBox="0 0 37.407 28.673">
  <path id="Fill-7_1_" d="M-86.117-489.927h-30.76a3.3,3.3,0,0,1-3.323-3.323v-22.027a3.3,3.3,0,0,1,3.323-3.323h30.76a3.3,3.3,0,0,1,3.323,3.323v22.027a3.3,3.3,0,0,1-3.323,3.323Zm-30.76-26.432a1.057,1.057,0,0,0-1.082,1.082v22.027a1.057,1.057,0,0,0,1.082,1.082h30.76a1.057,1.057,0,0,0,1.082-1.082v-22.027a1.057,1.057,0,0,0-1.082-1.082Z" transform="translate(120.2 518.6)" fill="#21d1d1"/>
  <path id="Fill-8_1_" d="M-118.8-512.8h35.243v6.569H-118.8Z" transform="translate(119.882 517.283)" fill="#21d1d1"/>
  <path id="Fill-9_1_" d="M-114.5-498.6h1.082v2.241H-114.5Z" transform="translate(118.905 514.057)" fill="#21d1d1"/>
  <path id="Fill-10_1_" d="M-111.7-498.6h1.159v2.241H-111.7Z" transform="translate(118.269 514.057)" fill="#21d1d1"/>
  <path id="Fill-11_1_" d="M-108.8-498.6h1.082v2.241H-108.8Z" transform="translate(117.611 514.057)" fill="#21d1d1"/>
  <path id="Fill-12_1_" d="M-104.5-498.6h1.082v2.241H-104.5Z" transform="translate(116.634 514.057)" fill="#21d1d1"/>
  <path id="Fill-13_1_" d="M-101.7-498.6h1.082v2.241H-101.7Z" transform="translate(115.998 514.057)" fill="#21d1d1"/>
  <path id="Fill-14_1_" d="M-98.8-498.6h1.082v2.241H-98.8Z" transform="translate(115.339 514.057)" fill="#21d1d1"/>
  <path id="Fill-15_1_" d="M-94.6-498.6h1.082v2.241H-94.6Z" transform="translate(114.385 514.057)" fill="#21d1d1"/>
  <path id="Fill-16_1_" d="M-91.7-498.6h1.082v2.241H-91.7Z" transform="translate(113.727 514.057)" fill="#21d1d1"/>
  <path id="Fill-17_1_" d="M-88.9-498.6h1.082v2.241H-88.9Z" transform="translate(113.091 514.057)" fill="#21d1d1"/>
  <path id="Fill-18_1_" d="M-84.6-498.6h1.082v2.241H-84.6Z" transform="translate(112.114 514.057)" fill="#21d1d1"/>
  <path id="Fill-19_1_" d="M-81.8-498.6h1.159v2.241H-81.8Z" transform="translate(111.478 514.057)" fill="#21d1d1"/>
  <path id="Fill-20_1_" d="M-78.9-498.6h1.082v2.241H-78.9Z" transform="translate(110.819 514.057)" fill="#21d1d1"/>
</svg>
