<svg id="check" xmlns="http://www.w3.org/2000/svg" width="32.417" height="32.417" viewBox="0 0 32.417 32.417">
  <path id="Caminho_1462" data-name="Caminho 1462" d="M16.208,0A16.208,16.208,0,1,0,32.417,16.208,16.208,16.208,0,0,0,16.208,0Zm0,30.9A14.689,14.689,0,1,1,30.9,16.208,14.689,14.689,0,0,1,16.208,30.9Z" fill="#21d1d1"/>
  <path id="Caminho_1463" data-name="Caminho 1463" d="M48.43,41.709l-9.492,9.335-2.6-2.733a.76.76,0,0,0-1.1,1.046l3.128,3.292a.76.76,0,0,0,.537.236h.013a.76.76,0,0,0,.532-.218L49.492,42.79a.76.76,0,0,0-1.066-1.084Z" transform="translate(-26.169 -30.981)" fill="#21d1d1"/>
</svg>
