<svg id="icon_youtube" xmlns="http://www.w3.org/2000/svg" width="23.56" height="23.56" viewBox="0 0 23.56 23.56">
  <path id="Caminho_1518" data-name="Caminho 1518" d="M0,11.78A11.78,11.78,0,1,1,11.78,23.56,11.78,11.78,0,0,1,0,11.78Z" fill="red"/>
  <path id="Caminho_1519" data-name="Caminho 1519" d="M18.836,10.277a1.6,1.6,0,0,0-1.111-1.141,36.577,36.577,0,0,0-4.909-.27,36.577,36.577,0,0,0-4.909.27A1.6,1.6,0,0,0,6.8,10.277a17.233,17.233,0,0,0-.263,3.106A17.233,17.233,0,0,0,6.8,16.488a1.6,1.6,0,0,0,1.111,1.141,36.593,36.593,0,0,0,4.909.27,36.593,36.593,0,0,0,4.909-.27,1.6,1.6,0,0,0,1.111-1.141,17.227,17.227,0,0,0,.263-3.105A17.227,17.227,0,0,0,18.836,10.277Z" transform="translate(-1.036 -1.406)" fill="#fff"/>
  <path id="Caminho_1520" data-name="Caminho 1520" d="M12.6,16.06V12.133L15.741,14.1Z" transform="translate(-1.998 -1.924)" fill="red"/>
</svg>
