<svg id="icon_instagram" xmlns="http://www.w3.org/2000/svg" xmlns:xlink="http://www.w3.org/1999/xlink" width="23.56" height="23.56" viewBox="0 0 23.56 23.56">
  <defs>
    <linearGradient id="linear-gradient" x1="0.781" y1="0.115" x2="0.167" y2="1" gradientUnits="objectBoundingBox">
      <stop offset="0" stop-color="#d82e7c"/>
      <stop offset="1" stop-color="#fbb44d"/>
    </linearGradient>
  </defs>
  <path id="Caminho_1516" data-name="Caminho 1516" d="M0,11.78A11.78,11.78,0,1,1,11.78,23.56,11.78,11.78,0,0,1,0,11.78Z" fill="url(#linear-gradient)"/>
  <g id="Grupo_224" data-name="Grupo 224" transform="translate(5.498 5.497)">
    <path id="Caminho_1517" data-name="Caminho 1517" d="M12.817,6.533c-1.706,0-1.92.007-2.591.038A4.61,4.61,0,0,0,8.7,6.863,3.214,3.214,0,0,0,6.863,8.7a4.589,4.589,0,0,0-.292,1.525c-.03.67-.038.884-.038,2.591s.008,1.92.038,2.59a4.617,4.617,0,0,0,.292,1.525A3.215,3.215,0,0,0,8.7,18.769a4.614,4.614,0,0,0,1.525.292c.67.031.884.038,2.59.038s1.92-.007,2.59-.038a4.616,4.616,0,0,0,1.526-.292,3.219,3.219,0,0,0,1.837-1.838,4.66,4.66,0,0,0,.292-1.525c.03-.67.038-.884.038-2.59s-.008-1.921-.038-2.591A4.658,4.658,0,0,0,18.769,8.7a3.215,3.215,0,0,0-1.838-1.837,4.625,4.625,0,0,0-1.526-.292c-.67-.031-.884-.038-2.59-.038Zm-.564,1.132h.564c1.677,0,1.876.006,2.539.036a3.478,3.478,0,0,1,1.166.216A2.081,2.081,0,0,1,17.714,9.11a3.47,3.47,0,0,1,.216,1.166c.03.662.037.861.037,2.538s-.006,1.876-.037,2.538a3.475,3.475,0,0,1-.216,1.166,2.083,2.083,0,0,1-1.192,1.192,3.465,3.465,0,0,1-1.166.217c-.662.03-.861.037-2.539.037s-1.876-.007-2.539-.037a3.485,3.485,0,0,1-1.167-.217,2.082,2.082,0,0,1-1.193-1.192A3.471,3.471,0,0,1,7.7,15.352c-.03-.662-.036-.861-.036-2.539s.006-1.876.036-2.538a3.478,3.478,0,0,1,.216-1.166A2.082,2.082,0,0,1,9.111,7.916,3.47,3.47,0,0,1,10.278,7.7c.58-.026.8-.034,1.975-.035Zm3.163,1.8a.754.754,0,0,1,.754-.754h0a.754.754,0,1,1-.754.754Zm-2.6.127a3.226,3.226,0,1,0,3.226,3.227A3.227,3.227,0,0,0,12.817,9.59Zm2.094,3.227a2.094,2.094,0,1,0-2.094,2.094,2.094,2.094,0,0,0,2.094-2.094Z" transform="translate(-6.533 -6.533)" fill="#fff" fill-rule="evenodd"/>
  </g>
</svg>
