<svg id="icon_facebook" xmlns="http://www.w3.org/2000/svg" width="23.56" height="23.56" viewBox="0 0 23.56 23.56">
  <path id="Caminho_1514" data-name="Caminho 1514" d="M23.56,11.78A11.78,11.78,0,1,0,9.94,23.418V15.185H6.948V11.78H9.94v-2.6C9.94,6.233,11.7,4.6,14.389,4.6a18.118,18.118,0,0,1,2.637.23v2.9H15.54a1.7,1.7,0,0,0-1.919,1.841V11.78h3.267l-.522,3.405H13.621v8.232A11.782,11.782,0,0,0,23.56,11.78Z" fill="#1877f2"/>
  <path id="Caminho_1515" data-name="Caminho 1515" d="M17.675,16.053l.522-3.405H14.93V10.439A1.7,1.7,0,0,1,16.849,8.6h1.486V5.7a18.118,18.118,0,0,0-2.637-.23c-2.692,0-4.45,1.631-4.45,4.583v2.6H8.258v3.405h2.991v8.232a11.949,11.949,0,0,0,3.681,0V16.053Z" transform="translate(-1.309 -0.867)" fill="#fff"/>
</svg>
