<svg id="Layer_x0020_1" xmlns="http://www.w3.org/2000/svg" width="53.554" height="31.806" viewBox="0 0 53.554 31.806">
  <path id="Caminho_1458" data-name="Caminho 1458" d="M1.745,1.846H35.916a.811.811,0,0,1,.811.811V27.907a.811.811,0,0,1-.811.811H18.36a5.613,5.613,0,0,0-11.223,0H1.745a.811.811,0,0,1-.811-.811V2.658a.811.811,0,0,1,.811-.811ZM7.932,14.013a.406.406,0,0,0,0,.811H29.063a.406.406,0,0,0,0-.811Zm0-6.229a.406.406,0,1,0,0,.811H29.063a.406.406,0,0,0,0-.811Z" transform="translate(-0.933 -1.846)" fill="#21d1d1"/>
  <path id="Caminho_1459" data-name="Caminho 1459" d="M9.8,5.375a4.8,4.8,0,1,0,1.406,3.4A4.786,4.786,0,0,0,9.8,5.375Zm-2.159,3.4A1.236,1.236,0,1,1,6.405,7.535,1.236,1.236,0,0,1,7.641,8.771Z" transform="translate(5.41 18.234)" fill="#21d1d1" fill-rule="evenodd"/>
  <path id="Caminho_1460" data-name="Caminho 1460" d="M4.745,8.771a4.8,4.8,0,1,0,1.406-3.4A4.786,4.786,0,0,0,4.745,8.771Zm6.037,0A1.236,1.236,0,1,1,9.547,7.535,1.236,1.236,0,0,1,10.782,8.771Z" transform="translate(35.127 18.234)" fill="#21d1d1" fill-rule="evenodd"/>
  <path id="Caminho_1461" data-name="Caminho 1461" d="M12.685,17.915A5.613,5.613,0,0,1,18.3,23.4h2.457a.811.811,0,0,0,.811-.811V10.509a8.35,8.35,0,0,0-2.215-5.7,7.359,7.359,0,0,0-5.391-2.4H4.616V22.584a1.615,1.615,0,0,1-.2.786.812.812,0,0,0,.2.026H7.074a5.613,5.613,0,0,1,5.611-5.481Zm4.2-8.306v4.547H10.805V6.864h3.518a2.664,2.664,0,0,1,2.559,2.745Z" transform="translate(31.989 3.476)" fill="#21d1d1" fill-rule="evenodd"/>
</svg>
