<svg xmlns="http://www.w3.org/2000/svg" width="39.295" height="34.168" viewBox="0 0 39.295 34.168">
  <g id="chat" transform="translate(-60.822 -86.288)">
    <path id="Caminho_1464" data-name="Caminho 1464" d="M163.5,152.233h15.613a.781.781,0,1,0,0-1.562H163.5a.781.781,0,0,0,0,1.562Z" transform="translate(-91.642 -57.902)" fill="#21d1d1"/>
    <path id="Caminho_1465" data-name="Caminho 1465" d="M210.393,203.362H195.762a.781.781,0,0,0,0,1.562h14.631a.781.781,0,0,0,0-1.562Z" transform="translate(-120.654 -105.289)" fill="#21d1d1"/>
    <path id="Caminho_1466" data-name="Caminho 1466" d="M177.215,256.052H163.5a.781.781,0,0,0,0,1.561h13.712a.781.781,0,1,0,0-1.561Z" transform="translate(-91.642 -152.675)" fill="#21d1d1"/>
    <path id="Caminho_1467" data-name="Caminho 1467" d="M94.64,86.288H66.3a5.288,5.288,0,0,0-5.476,5.064v15.586A5.288,5.288,0,0,0,66.3,112H83.012l12.061,8.455v-8.469a5.251,5.251,0,0,0,5.044-5.048V91.352A5.288,5.288,0,0,0,94.64,86.288Zm3.134,20.65a2.953,2.953,0,0,1-3.134,2.72H92.73v6.294l-8.978-6.294H66.3a2.953,2.953,0,0,1-3.134-2.72V91.352A2.953,2.953,0,0,1,66.3,88.631H94.64a2.953,2.953,0,0,1,3.134,2.721Z" transform="translate(0 0)" fill="#21d1d1"/>
  </g>
</svg>
